<svg xmlns="http://www.w3.org/2000/svg" viewBox="0 0 48 48" fill="none">
  <rect width="48" height="48" rx="12" fill="#95BF47"/>
  <!-- Bag body -->
  <path d="M13 19 L15 12 C15.5 10.5 17 9.5 18.5 9.5 L29.5 9.5 C31 9.5 32.5 10.5 33 12 L35 19 Z" fill="#FFFFFF"/>
  <path d="M13 19 L11.5 38 C11.4 39 12.2 40 13.3 40 L34.7 40 C35.8 40 36.6 39 36.5 38 L35 19 Z" fill="#FFFFFF"/>
  <!-- Handle -->
  <path d="M18.5 17 L18.5 14 C18.5 11.5 20.5 9.5 24 9.5 C27.5 9.5 29.5 11.5 29.5 14 L29.5 17" stroke="#95BF47" stroke-width="2.2" fill="none"/>
  <!-- Shopify "S" mark -->
  <path d="M27 21 C25.5 20.3 24 20 23 20.3 C21.8 20.6 21.5 21.6 22.3 22.2 C23.2 22.9 25.5 23.2 26.7 24.2 C28.2 25.5 27.9 27.6 26 28.6 C24.2 29.6 21.3 29.4 19.5 28.2 L20.4 26.3 C21.7 27.1 23.5 27.3 24.5 26.8 C25.5 26.3 25.5 25.4 24.7 24.8 C23.6 24 21.5 23.7 20.4 22.7 C19.1 21.5 19.4 19.6 21.1 18.6 C22.8 17.6 25.4 17.8 27.1 18.7 Z" fill="#95BF47"/>
</svg>
